Later,Live With Jools Holland (BBC2,Tom Jones,Vampire Weekend,)s36eo7[DTV-RIP-Divx]

First Shown On BBC 2 On Tuesday 25th May 2010

Description:

Joining Jools for the final show of the series are New York-based Vampire Weekend, whose second album Contra saw them top the US charts earlier this year; Leeds-born singer-songwriter Corinne Bailey Rae, with tracks from her second album The Sea; MGMT, whose new album Congratulations sees the duo explore a more psychedelic side to their sound, working with the likes of Sonic Boom; and Canadian duo Crystal Castles who are in the studio to perform a song or two from their acclaimed self-titled second album. Plus the legendary Sir Tom Jones makes an appearance on the show ahead of his 70th birthday, and, from Toronto, four piece indie rock
band Metric make their UK TV debut.

General
Complete name : Later live, With Jools Holland.s36eo7.divx
Format : AVI
Format/Info : Audio Video Interleave
File size : 336 MiB
Duration : 29mn 59s
Overall bit rate : 1 566 Kbps

Video
ID : 0
Format : MPEG-4 Visual
Format settings, BVOP : Yes
Format settings, QPel : No
Format settings, GMC : No warppoints
Format settings, Matrix : Default (H.263)
Muxing mode : Packed bitstream
Codec ID : DX50
Codec ID/Hint : DivX 5
Duration : 29mn 59s
Bit rate : 1 301 Kbps
Width : 680 pixels
Height : 384 pixels
Display aspect ratio : 16/9
Frame rate : 25.000 fps
Resolution : 24 bits
Colorimetry : 4:2:0
Scan type : Progressive
Bits/(Pixel*Frame) : 0.199
Stream size : 279 MiB (83%)
Title : Video
Writing library : DivX 6.8.2 (UTC 2008-05-17)

Audio
ID : 1
Format : AC-3
Format/Info : Audio Coding 3
Codec ID : 2000
Duration : 29mn 59s
Bit rate mode : Constant
Bit rate : 256 Kbps
Channel(s) : 2 channels
Channel positions : L R
Sampling rate : 48.0 KHz
Stream size : 54.9 MiB (16%)
Alignment : Split accross interleaves
Interleave, duration : 40 ms (1.00 video frame)
Interleave, preload duration : 500 ms
